<?xml version="1.0" encoding="iso-8859-1"?>
<!-- Generator: Adobe Illustrator 18.0.0, SVG Export Plug-In . SVG Version: 6.00 Build 0)  -->
<!DOCTYPE svg PUBLIC "-//W3C//DTD SVG 1.1//EN" "http://www.w3.org/Graphics/SVG/1.1/DTD/svg11.dtd">
<svg version="1.1" id="Capa_1" xmlns="http://www.w3.org/2000/svg" xmlns:xlink="http://www.w3.org/1999/xlink" x="0px" y="0px"
	 viewBox="0 0 297 297" style="enable-background:new 0 0 297 297;" xml:space="preserve">
<g>
	<path d="M139.36,259.098c1.495,3.738,5.114,6.189,9.14,6.189c4.025,0,7.644-2.45,9.139-6.189l24.323-60.853
		c18.801-6.563,35.608-18.758,47.715-34.711c13.538-17.839,20.693-39.137,20.693-61.591C250.37,45.732,204.672,0,148.5,0
		S46.63,45.732,46.63,101.944c0,22.454,7.155,43.752,20.693,61.591c12.106,15.953,28.915,28.148,47.716,34.711L139.36,259.098z
		 M148.5,65.733c19.945,0,36.173,16.244,36.173,36.211c0,19.964-16.228,36.206-36.173,36.206c-19.946,0-36.172-16.242-36.172-36.206
		C112.328,81.978,128.554,65.733,148.5,65.733z"/>
	<path d="M189.982,215.305l-19.55,48.91c-3.607,9.021-12.216,14.852-21.933,14.852c-9.716,0-18.325-5.83-21.934-14.855
		l-19.548-48.906c-36.127,5.352-65.793,18.14-65.793,39.376C41.226,283.757,96.833,297,148.5,297s107.274-13.243,107.274-42.319
		C255.774,233.444,226.108,220.658,189.982,215.305z"/>
</g>
<g>
</g>
<g>
</g>
<g>
</g>
<g>
</g>
<g>
</g>
<g>
</g>
<g>
</g>
<g>
</g>
<g>
</g>
<g>
</g>
<g>
</g>
<g>
</g>
<g>
</g>
<g>
</g>
<g>
</g>
</svg>
